<svg width="47" height="48" viewBox="0 0 47 48" fill="none" xmlns="http://www.w3.org/2000/svg">
<path d="M0.525879 12.1982C0.525879 8.99399 3.12339 6.39648 6.32757 6.39648H41.1377C44.3419 6.39648 46.9394 8.99399 46.9394 12.1982V35.405C46.9394 38.6091 44.3419 41.2067 41.1377 41.2067H6.32757C3.12339 41.2067 0.525879 38.6091 0.525879 35.405V12.1982ZM6.32757 9.29733C4.72548 9.29733 3.42673 10.5961 3.42673 12.1982V12.8274L23.7327 25.0109L44.0386 12.8274V12.1982C44.0386 10.5961 42.7398 9.29733 41.1377 9.29733H6.32757ZM44.0386 16.2103L30.3812 24.4048L44.0386 32.8093V16.2103ZM43.9406 36.1552L27.5787 26.0863L23.7327 28.3939L19.8866 26.0863L3.52467 36.1552C3.85531 37.3936 4.98492 38.3058 6.32757 38.3058H41.1377C42.4804 38.3058 43.61 37.3936 43.9406 36.1552ZM3.42673 32.8093L17.0841 24.4048L3.42673 16.2103V32.8093Z" fill="#8F2525"/>
</svg>
