<svg width="60" height="58" viewBox="0 0 60 58" fill="none" xmlns="http://www.w3.org/2000/svg">
<path d="M26.2442 9.06249C26.2442 14.0676 22.0469 18.125 16.8692 18.125C11.6916 18.125 7.49422 14.0676 7.49422 9.06249C7.49422 4.05742 11.6916 0 16.8692 0C22.0469 0 26.2442 4.05742 26.2442 9.06249Z" fill="#A0A0A0"/>
<path d="M42.0885 23.7539C41.3667 23.405 40.4948 23.5417 39.9242 24.0934L26.0111 41.1677L16.0401 31.1169C15.2964 30.6377 14.3062 30.7325 13.6742 31.3434L0 47.125V54.375C0 56.377 1.67893 58 3.75 58H56.25C58.3211 58 60 56.377 60 54.375V38.0625L42.0885 23.7539Z" fill="#A0A0A0"/>
</svg>
