<svg width="100" height="100" viewBox="0 0 100 100" fill="none" xmlns="http://www.w3.org/2000/svg">
<path d="M93 35.6002H78V21.6002C78 21.5002 78 21.3002 78 21.2002C78 21.1002 78 21.0002 77.9 20.9002V20.8002C77.9 20.7002 77.8 20.6002 77.8 20.5002V20.4002C77.7 20.3002 77.6 20.2002 77.6 20.1002L63.6 6.1002C63.5 6.0002 63.4 5.9002 63.3 5.9002H63.2C63.1 5.8002 63 5.8002 62.9 5.8002H62.8C62.7 5.8002 62.6 5.7002 62.5 5.7002C62.4 5.7002 62.2 5.7002 62.1 5.7002H24C22.9 5.7002 22 6.6002 22 7.7002V35.7002H7C5.9 35.7002 5 36.6002 5 37.7002V61.7002C5 62.8002 5.9 63.7002 7 63.7002H12.4L7.6 68.5002C6.8 69.3002 6.8 70.5002 7.6 71.3002L14.7 78.4002L21.8 85.5002L28.9 92.6002C29.3 93.0002 29.8 93.2002 30.3 93.2002C30.8 93.2002 31.3 93.0002 31.7 92.6002L35.9 88.4002L41.6 94.1002C42 94.5002 42.5 94.7002 43 94.7002C43.5 94.7002 44 94.5002 44.4 94.1002L50 88.5002L55.6 94.1002C56 94.5002 56.5 94.7002 57 94.7002C57.5 94.7002 58 94.5002 58.4 94.1002L64.1 88.4002L68.3 92.6002C68.7 93.0002 69.2 93.2002 69.7 93.2002C70.2 93.2002 70.7 93.0002 71.1 92.6002L78.2 85.5002L85.3 78.4002L92.4 71.3002C93.2 70.5002 93.2 69.3002 92.4 68.5002L87.6 63.7002H93C94.1 63.7002 95 62.8002 95 61.7002V37.7002C95 36.5002 94.1 35.6002 93 35.6002ZM64 12.4002L71.2 19.6002H64V12.4002ZM26 9.6002H60V21.6002C60 22.7002 60.9 23.6002 62 23.6002H74V35.6002H70.2H69.5H58.8H55.4H53H44.6H43H41.2H30.5H29.8H26V9.6002ZM18 63.6002H25.3L25.9 64.2002L16.1 74.0002L11.9 69.8002L18 63.6002ZM23.2 81.1002L19 76.9002L28.9 67.0002L33.1 71.2002L23.2 81.1002ZM30.2 88.2002L26 83.9002L35.9 74.0002L40.1 78.2002L34.5 83.8002L30.2 88.2002ZM43 89.6002L38.8 85.4002L43 81.2002L47.2 85.4002L43 89.6002ZM83.9 74.0002L73.1 63.2002C72.3 62.4002 71.1 62.4002 70.3 63.2002C69.5 64.0002 69.5 65.2002 70.3 66.0002L81.1 76.8002L76.9 81.0002L66 70.3002C65.2 69.5002 64 69.5002 63.2 70.3002C62.4 71.1002 62.4 72.3002 63.2 73.1002L74 83.9002L69.8 88.1002L65.6 83.9002L59 77.4002C58.9 77.3002 58.8 77.2002 58.7 77.2002C58.5 77.1002 58.3 77.0002 58.1 76.9002H58C57.8 76.9002 57.5 76.9002 57.2 76.9002C57.1 76.9002 57.1 76.9002 57 77.0002C56.8 77.0002 56.7 77.1002 56.6 77.2002C56.6 77.2002 56.5 77.2002 56.5 77.3002C56.4 77.4002 56.3 77.5002 56.2 77.5002C56.1 77.6002 56 77.7002 56 77.8002C55.9 78.0002 55.8 78.2002 55.8 78.4002V78.5002C55.8 78.6002 55.8 78.8002 55.8 78.9002C55.8 79.2002 55.8 79.4002 55.9 79.7002C56 79.9002 56.1 80.1002 56.3 80.3002L61.4 85.5002L57 89.6002L51.4 84.0002L44.3 76.9002L37.2 69.8002L30.1 62.7002L27.5 60.1002C27.4 60.0002 27.3 59.9002 27.2 59.9002C27.1 59.9002 27.1 59.8002 27 59.8002C26.9 59.8002 26.9 59.7002 26.8 59.7002C26.7 59.7002 26.7 59.7002 26.6 59.6002C26.5 59.6002 26.5 59.6002 26.4 59.6002C26.3 59.6002 26.1 59.6002 26 59.6002H17H9V39.6002H24H29.8H30.5H41V50.0002C41 50.0002 41 50.0002 41 50.1002C41 50.1002 41 50.1002 41 50.2002V61.7002C41 62.8002 41.9 63.7002 43 63.7002C44.2 63.7002 45.4 63.5002 46.5 63.2002C48.8 62.5002 50.8 61.1002 52.3 59.3002C52.7 58.8002 53.1 58.2002 53.5 57.6002C55 59.0002 56.9 59.8002 59 59.8002H63H63.6H64.6H65H77.8H78L81.4 63.2002L88.2 70.0002L83.9 74.0002ZM91 59.6002H83.6L80.4 56.4002L80.2 56.2002C80.1 56.1002 80 56.0002 79.9 55.9002L79.8 55.8002C79.7 55.8002 79.7 55.7002 79.6 55.7002C79.5 55.7002 79.5 55.7002 79.4 55.6002C79.3 55.6002 79.3 55.6002 79.2 55.5002C79.1 55.5002 78.9 55.5002 78.8 55.5002H77.8H65H64.6H63.6H63H59C57.3 55.5002 55.8 54.5002 55.3 52.9002C55.1 52.4002 55 52.0002 55 51.5002V45.9002C55 44.8002 54.1 43.9002 53 43.9002C51.9 43.9002 51 44.8002 51 45.9002V51.5002C51 52.3002 50.9 53.1002 50.6 53.9002C50.3 54.9002 49.8 55.8002 49.2 56.6002C48.2 57.9002 46.9 58.8002 45.3 59.2002C45.2 59.2002 45.1 59.3002 45 59.3002V50.1002C45 50.1002 45 50.1002 45 50.0002C45 50.0002 45 50.0002 45 49.9002V39.6002H53H55.4H58.8H69.5H70.2H76H91V59.6002Z" fill="#1D1E1F"/>
</svg>
