<svg width="100" height="100" viewBox="0 0 100 100" fill="none" xmlns="http://www.w3.org/2000/svg">
<path d="M86.0001 8H29.0001C23.5001 8 19.0001 12.5 19.0001 18V19.8L8.00012 13.3C7.30012 12.9 6.40012 12.9 5.80012 13.4C5.10012 13.9 4.90012 14.7 5.10012 15.5L10.0001 34.5C10.7001 37.3 11.9001 39.8 13.4001 42C14.9001 44.2 16.8001 46.2 19.0001 47.7V78H15.0001C13.9001 78 13.0001 78.9 13.0001 80V82C13.0001 87.5 17.5001 92 23.0001 92H72.0001C77.0001 92 81.0001 88 81.0001 83V26H93.0001C94.1001 26 95.0001 25.1 95.0001 24V17C95.0001 12 91.0001 8 86.0001 8ZM13.8001 33.4L10.1001 19.2L22.7001 26.7C30.2001 31.2 33.8001 39.8 31.8001 48.2C23.3001 47.8 16.0001 41.9 13.8001 33.4ZM23.0001 88C19.7001 88 17.0001 85.3 17.0001 82H21.0001H63.0001V83C63.0001 84.8 63.6001 86.6 64.5001 88H23.0001ZM77.0001 17V83C77.0001 85.8 74.8001 88 72.0001 88C69.2001 88 67.0001 85.8 67.0001 83V80C67.0001 78.9 66.1001 78 65.0001 78H23.0001V50.1C25.9001 51.4 29.0001 52.2 32.4001 52.2L39.1001 61.2C39.1001 61.2 39.1001 61.2 39.2001 61.3C39.3001 61.4 39.3001 61.5 39.4001 61.5L39.5001 61.6C39.6001 61.7 39.6001 61.7 39.7001 61.8C39.7001 61.8 39.8001 61.8 39.8001 61.9C39.9001 61.9 40.0001 62 40.1001 62H40.2001C40.3001 62 40.5001 62 40.6001 62H69.0001C70.1001 62 71.0001 61.1 71.0001 60C71.0001 58.9 70.1001 58 69.0001 58H41.7001L35.6001 49.8C38.4001 39.6 34.1001 28.8 24.9001 23.3L23.0001 22.2V18C23.0001 14.7 25.7001 12 29.0001 12H78.5001C77.6001 13.4 77.0001 15.1 77.0001 17ZM81.0001 17C81.0001 14.2 83.2001 12 86.0001 12C88.8001 12 91.0001 14.2 91.0001 17V22H81.0001V17ZM71.0001 70C71.0001 71.1 70.1001 72 69.0001 72H31.0001C29.9001 72 29.0001 71.1 29.0001 70C29.0001 68.9 29.9001 68 31.0001 68H69.0001C70.1001 68 71.0001 68.9 71.0001 70ZM71.0001 50C71.0001 51.1 70.1001 52 69.0001 52H47.0001C45.9001 52 45.0001 51.1 45.0001 50C45.0001 48.9 45.9001 48 47.0001 48H69.0001C70.1001 48 71.0001 48.9 71.0001 50ZM71.0001 40C71.0001 41.1 70.1001 42 69.0001 42H47.0001C45.9001 42 45.0001 41.1 45.0001 40C45.0001 38.9 45.9001 38 47.0001 38H69.0001C70.1001 38 71.0001 38.9 71.0001 40ZM71.0001 30C71.0001 31.1 70.1001 32 69.0001 32H47.0001C45.9001 32 45.0001 31.1 45.0001 30C45.0001 28.9 45.9001 28 47.0001 28H69.0001C70.1001 28 71.0001 28.9 71.0001 30ZM29.0001 20C29.0001 18.9 29.9001 18 31.0001 18H69.0001C70.1001 18 71.0001 18.9 71.0001 20C71.0001 21.1 70.1001 22 69.0001 22H31.0001C29.9001 22 29.0001 21.1 29.0001 20ZM40.7001 62C40.6001 62 40.4001 62 40.3001 62C40.4001 62 40.6001 62 40.7001 62Z" fill="#1D1E1F"/>
</svg>
