<svg width="100" height="100" viewBox="0 0 100 100" fill="none" xmlns="http://www.w3.org/2000/svg">
<path d="M21.658 78.4199V85.9659C21.658 89.8219 24.784 92.9479 28.64 92.9479H34.143C36.31 92.9479 38.249 91.9559 39.53 90.4019C40.506 93.0789 43.071 94.9999 46.083 94.9999H51.587C53.81 94.9999 55.788 93.9529 57.068 92.3289C57.927 92.7219 58.878 92.9469 59.882 92.9469H73.672C77.423 92.9469 80.464 89.9059 80.464 86.1549V39.0819C80.464 34.5909 77.711 30.7339 73.804 29.1039C77.9 26.4829 80.455 21.6559 79.743 16.3029C78.964 10.4439 74.177 5.75588 68.305 5.08688C60.41 4.18788 53.694 10.3659 53.694 18.0839C53.694 22.7119 56.116 26.7769 59.752 29.1039C55.845 30.7339 53.092 34.5909 53.092 39.0819V42.3759C51.814 41.7179 50.37 41.3389 48.836 41.3389C46.625 41.3389 44.595 42.1159 42.994 43.4049C42.327 40.5369 40.349 38.1719 37.725 36.9729C40.685 34.9739 42.655 31.6169 42.734 27.8029C42.86 21.7079 37.933 16.4659 31.842 16.2299C25.384 15.9799 20.049 21.1609 20.049 27.5649C20.049 31.4769 22.039 34.9319 25.06 36.9719C21.808 38.4569 19.539 41.7319 19.539 45.5339V76.2969C19.537 77.4699 20.486 78.4199 21.658 78.4199ZM37.823 85.9659C37.823 87.9959 36.172 89.6479 34.142 89.6479H28.638C26.608 89.6479 24.957 87.9969 24.957 85.9659V78.4199H37.823V85.9659V85.9659ZM56.993 18.0839C56.993 12.6889 61.383 8.29988 66.777 8.29988C72.171 8.29988 76.561 12.6889 76.561 18.0839C76.561 23.4789 72.171 27.8689 66.777 27.8689C61.383 27.8689 56.993 23.4789 56.993 18.0839ZM56.39 39.0819C56.39 34.9419 59.759 31.5729 63.899 31.5729H69.653C73.793 31.5729 77.162 34.9419 77.162 39.0819V86.1559C77.162 88.0809 75.596 89.6479 73.67 89.6479H68.426V66.9409H65.126V89.6479H59.881C59.366 89.6479 58.881 89.5289 58.44 89.3279C58.521 88.9039 58.567 88.4669 58.567 88.0199V65.2049C59.144 65.0509 59.691 64.7959 60.178 64.4479L68.639 58.4149C69.747 57.6249 70.482 56.4459 70.708 55.0969C70.934 53.7479 70.623 52.3939 69.833 51.2859C69.043 50.1769 67.864 49.4429 66.514 49.2159C65.163 48.9889 63.811 49.2999 62.703 50.0909L57.648 53.6949C57.976 52.7439 58.162 51.7279 58.162 50.6669C58.162 48.6309 57.499 46.7519 56.388 45.2159V39.0819H56.39ZM48.834 44.6389C52.158 44.6389 54.864 47.3429 54.864 50.6679C54.864 53.1849 53.312 55.3439 51.116 56.2459C50.999 56.2409 50.883 56.2299 50.766 56.2299H46.902C46.785 56.2299 46.669 56.2409 46.552 56.2459C44.356 55.3439 42.805 53.1849 42.805 50.6679C42.805 47.3429 45.51 44.6389 48.834 44.6389ZM44.485 60.2469C45.214 59.7779 46.05 59.5299 46.903 59.5299H50.767C51.62 59.5299 52.455 59.7779 53.183 60.2469C53.245 60.2869 53.312 60.3139 53.378 60.3449L56.993 58.2189L64.621 52.7799C65.013 52.5009 65.491 52.3949 65.971 52.4729C66.451 52.5529 66.868 52.8129 67.146 53.2039C67.726 54.0169 67.537 55.1499 66.724 55.7299L58.263 61.7629C58.068 61.9029 57.867 61.9789 57.675 62.0249L55.261 63.6749C55.26 63.7149 55.252 63.7529 55.254 63.7929L55.268 88.0209C55.268 90.0509 53.617 91.7019 51.587 91.7019H50.485V81.1079H47.185V91.6999H46.084C44.054 91.6999 42.403 90.0489 42.403 88.0189V64.1949L37.249 60.2219L30.947 55.7279C30.556 55.4489 30.297 55.0319 30.217 54.5519C30.137 54.0719 30.246 53.5929 30.525 53.2019C30.803 52.8109 31.221 52.5519 31.7 52.4719C32.179 52.3919 32.659 52.5009 33.05 52.7789L37.912 56.2459L44.485 60.2469ZM23.347 27.5659C23.347 23.1309 26.956 19.5219 31.391 19.5219C35.826 19.5219 39.434 23.1299 39.434 27.5659C39.434 32.0009 35.826 35.6099 31.391 35.6099C26.956 35.6099 23.347 32.0019 23.347 27.5659ZM22.837 45.5359C22.837 42.1639 25.58 39.4209 28.952 39.4209H33.83C37.202 39.4209 39.946 42.1639 39.946 45.5359V47.8439C39.662 48.7349 39.506 49.6839 39.506 50.6679C39.506 51.6519 39.662 52.6009 39.946 53.4919V53.6429L34.966 50.0919C33.856 49.3019 32.502 48.9899 31.154 49.2169C29.804 49.4429 28.626 50.1779 27.836 51.2869C26.2 53.5809 26.736 56.7789 29.03 58.4159L37.491 64.4499C37.979 64.7969 38.525 65.0519 39.102 65.2059V75.1209H22.837V45.5359Z" fill="#1D1E1F"/>
</svg>
