<svg width="100" height="100" viewBox="0 0 100 100" fill="none" xmlns="http://www.w3.org/2000/svg">
<path d="M79.592 95H18.6019C13.3078 95 9 90.5298 9 85.0355V13.9326C9 12.3946 9.59126 10.9488 10.6635 9.86156L15.1875 5.27378C16.8109 3.62766 19.6398 3.62766 21.2633 5.27378L25.9848 10.0604L30.6848 5.28249C32.3112 3.63057 35.1429 3.63129 36.7692 5.28176L41.4693 10.0604L46.1879 5.27596C46.9996 4.4529 48.0791 4 49.2258 4H49.2287C50.3768 4.00073 51.4563 4.45508 52.268 5.28031L56.9709 10.0604L61.6895 5.27596C62.4998 4.4529 63.5793 4 64.7274 4H64.7303C65.8799 4.00073 66.9579 4.4558 67.7682 5.28104L72.2778 9.86373C73.3473 10.9488 73.9371 12.3931 73.9371 13.9297V85.7431C73.9829 85.8564 74.0158 85.9761 74.033 86.0995C74.4668 89.1384 76.7961 91.543 79.6965 91.9458C80.0115 91.9894 80.305 92.136 80.5297 92.3632C80.9521 92.7878 81.1267 93.4751 80.9005 94.0325C80.6743 94.5892 80.1861 95 79.592 95ZM18 7.5C17.6507 7.5 17.2663 7.73073 17 8L13.5 12C12.9818 12.5262 13 13.1893 13 13.9326V85.0355C13 88.8909 14.9241 91 18.6019 91H72C70.6972 89.6311 70.3622 88.9626 70 87C69.8726 86.7772 70 86.2613 70 86V13.9297C70 13.1872 70.0168 13.0248 69.5 12.5L64.7274 8C65.0925 8.00073 64.4698 7.73799 64.7274 8C64.9851 7.73871 64.3624 8 64.7274 8L58.5 13.2133C58.2251 13.492 57.3894 14 57 14C56.612 14 55.9334 13.4927 55.6585 13.2133L50.5 8.5C50.2423 8.23799 49.8651 8 49.5 8C49.1349 8 48.7577 8.23799 48.5 8.5L43 13C42.7251 13.2787 41.8587 14 41.4693 14H41.5C41.112 14 40.2749 13.2794 40 13L34.5 8C33.9846 7.47597 33.5154 7.47452 33 8L27 13.5C26.7251 13.7794 26.3894 14 26 14C25.6106 14 24.7749 13.7787 24.5 13.5L19 8C18.7337 7.73073 18.3493 7.5 18 7.5Z" fill="#1D1E1F"/>
<path d="M80.9993 95C80.5282 95 80.0915 94.9676 79.6189 94.9007C75.2528 94.3116 71.7572 90.8991 71.1282 86.604C71.0462 86.2098 71 85.7055 71 85.1394V24.4732C71 23.6596 71.6827 23 72.5264 23H89.4736C90.3173 23 91 23.6596 91 24.4732V85.1394C91 87.7607 89.9625 90.2308 88.0798 92.0953C86.1882 93.9685 83.6735 95 80.9993 95ZM74.0528 27V85.1394C74.0528 85.5192 74.0797 85.8285 74.1378 86.1148C74.591 89.1921 76.965 90.59 80 91C82.2434 91.3165 83.9587 91.0243 85.5 89.5C86.8237 88.1894 87 87.1192 87 85.2712V27H74.0528Z" fill="#1D1E1F"/>
<path d="M62.9414 36H21C18.955 36 17 33.6398 17 31.5948V24.5C17 22.4557 18.955 21 21 21H62.9414C64.9865 21 67 22.9557 67 25V32C67 34.045 64.9865 36 62.9414 36ZM22 25C21.5763 25 21 25.5771 21 26V31C21 31.4229 21.5763 32 22 32H62C62.4237 32 63 31.4229 63 31V26C63 25.5771 62.4237 25 62 25H22Z" fill="#1D1E1F"/>
<path d="M64.943 50H19C18.1872 50 17.5 48.8121 17.5 48C17.5 47.1879 18.1872 46 19 46H64.943C65.7558 46 67 47.1879 67 48C67 48.8121 65.7558 50 64.943 50Z" fill="#1D1E1F"/>
<path d="M64.443 82H18.5C17.6872 82 17 80.8121 17 80C17 79.1879 17.6872 78 18.5 78H64.443C65.2558 78 66.5 79.1879 66.5 80C66.5 80.8121 65.2558 82 64.443 82Z" fill="#1D1E1F"/>
<path d="M29 58L18.7103 58.0002C17.8975 58.0002 17 56.8121 17 56C17 55.1879 17.8975 54 18.7103 54H29.0849C29.8977 54 31 55.1879 31 56C31 56.8121 29.8128 58 29 58Z" fill="#1D1E1F"/>
<path d="M29 74L18.7103 74.0002C17.8975 74.0002 17 72.8121 17 72C17 71.1879 17.8975 70 18.7103 70H29.0849C29.8977 70 31 71.1879 31 72C31 72.8121 29.8128 74 29 74Z" fill="#1D1E1F"/>
<path d="M65.1806 58H55C54.1872 58 53.5 56.8121 53.5 56C53.5 55.1879 54.1872 54 55 54H65.1806C65.9934 54 67 55.1879 67 56C67 56.8121 65.9934 58 65.1806 58Z" fill="#1D1E1F"/>
<path d="M64.6806 74H54.5C53.6872 74 53 72.8121 53 72C53 71.1879 53.6872 70 54.5 70H64.6806C65.4934 70 66.5 71.1879 66.5 72C66.5 72.8121 65.4934 74 64.6806 74Z" fill="#1D1E1F"/>
<path d="M47.5 74H36C35.1872 74 34 72.9598 34 72.1476V56C34 55.1879 35.6872 54 36.5 54H47.5C48.3128 54 50 55.3662 50 56.1783V72C50 72.8121 48.3129 74 47.5 74ZM38 70H46V58H38V70Z" fill="#1D1E1F"/>
</svg>
