<svg width="41" height="43" viewBox="0 0 41 43" fill="none" xmlns="http://www.w3.org/2000/svg">
<path d="M20.4682 0.44043C15.0349 0.44043 14.353 0.465137 12.219 0.566133C10.0892 0.667563 8.63542 1.01823 7.36337 1.53275C6.04756 2.06417 4.93138 2.77504 3.81938 3.93195C2.70655 5.08842 2.023 6.24923 1.51035 7.61723C1.01437 8.94058 0.676764 10.4529 0.580902 12.667C0.485457 14.8863 0.460449 15.5959 0.460449 21.2465C0.460449 26.8971 0.484624 27.6041 0.581319 29.8234C0.679266 32.0384 1.01645 33.5503 1.51077 34.8732C2.02217 36.2416 2.70571 37.4024 3.81813 38.5589C4.92972 39.7162 6.04589 40.4288 7.36087 40.9603C8.63375 41.4748 10.0879 41.8254 12.2173 41.9269C14.3513 42.0279 15.0328 42.0526 20.4657 42.0526C25.8994 42.0526 26.5792 42.0279 28.7132 41.9269C30.843 41.8254 32.2984 41.4748 33.5713 40.9603C34.8867 40.4288 36.0012 39.7162 37.1128 38.5589C38.2256 37.4024 38.9092 36.2416 39.4218 34.8736C39.9136 33.5503 40.2512 32.0379 40.3513 29.8238C40.4471 27.6045 40.4721 26.8971 40.4721 21.2465C40.4721 15.5959 40.4471 14.8868 40.3513 12.6675C40.2512 10.4525 39.9136 8.94058 39.4218 7.61766C38.9092 6.24923 38.2256 5.08842 37.1128 3.93195C35.9999 2.77461 34.8871 2.06374 33.57 1.53275C32.2947 1.01823 30.8401 0.667563 28.7102 0.566133C26.5763 0.465137 25.8969 0.44043 20.4619 0.44043H20.4682ZM18.6735 4.18986C19.2061 4.18899 19.8005 4.18986 20.4682 4.18986C25.8098 4.18986 26.4429 4.2098 28.5523 4.30949C30.5029 4.40225 31.5615 4.74122 32.2667 5.026C33.2003 5.40311 33.866 5.85391 34.5658 6.58212C35.266 7.31034 35.6994 8.00387 36.0629 8.97482C36.3367 9.70737 36.6631 10.8084 36.7518 12.8369C36.8477 15.0303 36.8685 15.6891 36.8685 21.2417C36.8685 26.7944 36.8477 27.4532 36.7518 29.6465C36.6626 31.6751 36.3367 32.7761 36.0629 33.5087C35.7003 34.4796 35.266 35.171 34.5658 35.8988C33.8656 36.627 33.2008 37.0778 32.2667 37.4549C31.5624 37.741 30.5029 38.0791 28.5523 38.1718C26.4433 38.2715 25.8098 38.2932 20.4682 38.2932C15.1261 38.2932 14.493 38.2715 12.3841 38.1718C10.4335 38.0782 9.37481 37.7392 8.66918 37.4544C7.73557 37.0773 7.0687 36.6265 6.36849 35.8983C5.66827 35.1701 5.23481 34.4783 4.87137 33.5069C4.59753 32.7744 4.27119 31.6734 4.18241 29.6448C4.08655 27.4515 4.06737 26.7926 4.06737 21.2365C4.06737 15.6804 4.08655 15.0251 4.18241 12.8317C4.2716 10.8032 4.59753 9.70217 4.87137 8.96875C5.23398 7.9978 5.66827 7.30427 6.36849 6.57605C7.0687 5.84784 7.73557 5.39704 8.66918 5.01907C9.3744 4.73298 10.4335 4.39488 12.3841 4.30169C14.2296 4.215 14.9448 4.18899 18.6735 4.18466V4.18986ZM31.1472 7.64453C29.8218 7.64453 28.7465 8.76156 28.7465 10.1404C28.7465 11.5188 29.8218 12.6371 31.1472 12.6371C32.4726 12.6371 33.548 11.5188 33.548 10.1404C33.548 8.76199 32.4726 7.64367 31.1472 7.64367V7.64453ZM20.4682 10.5617C14.7944 10.5617 10.1942 15.3458 10.1942 21.2465C10.1942 27.1472 14.7944 31.9291 20.4682 31.9291C26.142 31.9291 30.7404 27.1472 30.7404 21.2465C30.7404 15.3458 26.1415 10.5617 20.4677 10.5617H20.4682ZM20.4682 14.3111C24.1509 14.3111 27.1368 17.416 27.1368 21.2465C27.1368 25.0766 24.1509 28.1819 20.4682 28.1819C16.785 28.1819 13.7995 25.0766 13.7995 21.2465C13.7995 17.416 16.785 14.3111 20.4682 14.3111V14.3111Z" fill="#8F2525"/>
</svg>
