<svg width="78" height="69" viewBox="0 0 78 69" fill="none" xmlns="http://www.w3.org/2000/svg">
<g clip-path="url(#clip0_67_30)">
<path fill-rule="evenodd" clip-rule="evenodd" d="M42.9283 21.7488C43.521 21.94 44.1055 22.1309 44.6981 22.3218C43.801 22.3966 42.9119 22.4465 42.0477 22.488C41.1832 22.5212 40.3025 22.5628 39.4054 22.6125L41.1092 21.209C41.7266 21.3752 42.3274 21.5579 42.9283 21.7488ZM38.0471 20.3539C38.3848 20.4285 38.7058 20.5033 39.0103 20.5862C39.3148 20.6693 39.6359 20.7606 39.9733 20.852C39.6359 21.1427 39.3067 21.4334 38.9774 21.7323C38.6398 22.0313 38.2861 22.3385 37.9073 22.6457H35.5614L38.0471 20.3539ZM9.81289 50.2323C9.72235 50.2323 9.77999 50.0579 10.0103 49.6925C10.2327 49.3354 10.5537 48.8705 10.9569 48.2973C11.3522 47.7244 11.8378 47.0768 12.3894 46.3626C12.9492 45.6402 13.5253 44.926 14.118 44.2118C14.7106 43.4894 15.2951 42.8001 15.8631 42.1441C16.4229 41.488 16.9413 40.9315 17.3858 40.4749C17.6245 40.5662 17.8551 40.6575 18.0856 40.7406C18.3077 40.832 18.5301 40.9233 18.7441 41.0146L9.81289 50.2323ZM29.8897 19.4652C30.5647 19.3821 31.2808 19.3572 32.0382 19.3821C32.8038 19.4071 33.5363 19.4652 34.2442 19.5733C34.9521 19.6811 35.479 19.7724 35.8164 19.8473L33.1823 22.3218C31.6184 22.0313 30.4742 21.6575 29.7662 21.1926C29.0583 20.7274 28.6219 20.3454 28.4822 20.0631C28.7456 19.7475 29.2146 19.5566 29.8897 19.4652ZM17.9209 39.9848C18.7278 39.1211 19.5673 38.241 20.4316 37.3274C21.2959 36.4223 22.1685 35.5256 23.0492 34.6537C23.9218 33.7818 24.7861 32.9264 25.6422 32.0877L28.054 29.721C29.8568 28.0019 31.6348 26.3329 33.3965 24.7134C34.0797 24.8214 34.7629 24.8878 35.4543 24.9128C32.8038 27.3044 30.1697 29.7791 27.5603 32.3367C24.9509 34.9028 22.2014 37.6263 19.312 40.5245L17.9209 39.9848ZM42.8872 19.706C44.591 18.2195 46.3691 16.7829 48.2213 15.363C50.0733 13.9511 51.9255 12.6307 53.7859 11.4017C55.6461 10.1727 57.4736 9.04327 59.2763 8.03012C61.0791 7.01722 62.7995 6.13682 64.4375 5.39768C66.0755 4.65029 67.5985 4.06911 69.006 3.65387C70.4137 3.23863 71.6567 3.01452 72.7184 2.98958C74.0274 2.96462 74.8835 3.32995 75.2867 4.08557C75.682 4.83296 75.6407 5.80469 75.1386 6.98379C74.6446 8.17136 73.7063 9.50017 72.3315 10.97C70.9569 12.4398 69.1542 13.8764 66.9235 15.2716C64.6928 16.6751 62.0421 17.9537 58.9634 19.1164C55.8766 20.279 52.3948 21.1509 48.5095 21.7488L42.8872 19.706ZM42.7472 24.9295C44.8792 24.8464 47.0688 24.6555 49.3243 24.3398C52.9298 25.7266 55.8519 27.2298 58.1073 28.8573C60.3546 30.4851 61.9681 32.1044 62.9392 33.7155C63.919 35.3347 64.273 36.8874 64.0096 38.3822C63.7461 39.877 62.9147 41.2055 61.5152 42.3517C60.124 43.4976 58.1733 44.4109 55.6708 45.0919C53.1685 45.7729 50.1638 46.1051 46.6572 46.0801C43.1507 46.0552 39.1585 45.6317 34.6887 44.8097C30.2189 43.9792 25.3212 42.6257 19.9871 40.7322C22.1438 38.4818 24.2263 36.4058 26.2431 34.5125C28.2598 32.611 30.046 30.9418 31.6184 29.5051C33.4375 27.8277 35.1414 26.2997 36.7383 24.9128C38.6069 25.0123 40.607 25.0124 42.7472 24.9295ZM32.0793 8.16312C32.812 8.45384 33.9315 8.62803 35.4377 8.70289C36.9441 8.77751 38.6893 8.64474 40.681 8.32084C42.6732 7.99693 44.8381 7.44069 47.1675 6.63517C49.5053 5.82963 51.8679 4.68348 54.2633 3.19719C52.5592 4.63383 50.7812 6.17001 48.9292 7.80603C47.3486 9.21769 45.5543 10.8288 43.5623 12.6307C41.57 14.4244 39.5535 16.3013 37.5205 18.2445C36.8536 18.095 36.1209 17.9705 35.3143 17.8459C34.5076 17.7296 33.701 17.6548 32.8943 17.6134C32.0875 17.5719 31.2974 17.5884 30.5152 17.6466C29.7252 17.7129 29.0419 17.8292 28.4493 18.0119C27.8566 18.1863 27.3708 18.4438 26.9921 18.7842C26.6136 19.1164 26.4078 19.5399 26.3912 20.0382C26.3665 20.4285 26.4654 20.827 26.7042 21.2507C26.9428 21.6742 27.2803 22.0645 27.7248 22.4381C28.1611 22.8119 28.688 23.1523 29.3052 23.4679C29.9226 23.7751 30.5813 24.0242 31.2974 24.2153C28.7785 26.6816 26.3089 29.173 23.8805 31.6809C21.4522 34.1886 19.0815 36.7794 16.785 39.4285C14.653 38.6395 12.6197 37.8175 10.6853 36.9538C8.75915 36.0984 7.04691 35.2349 5.56523 34.3715C4.08354 33.5078 2.89819 32.6856 2.00918 31.8968C1.12018 31.1077 0.659332 30.3935 0.609855 29.7624C0.560396 29.1313 1.0133 28.5998 1.95155 28.1681C2.90659 27.7364 4.47041 27.4621 6.65189 27.3376V27.1218C4.25644 27.2463 2.54422 27.5452 1.51544 28.0269C0.486421 28.5002 -0.0238803 29.0899 0.000858064 29.7791C0.0253569 30.4766 0.494599 31.2572 1.40017 32.1293C2.32209 33.0013 3.52377 33.8896 5.03019 34.8032C6.53661 35.7083 8.26517 36.6134 10.2245 37.5103C12.1836 38.4072 14.2003 39.2374 16.291 40.0015C15.7889 40.5744 15.2291 41.2387 14.6119 41.9779C13.9945 42.717 13.3853 43.4894 12.7679 44.2947C12.1507 45.0919 11.5662 45.881 11.023 46.6616C10.4795 47.4339 10.0187 48.1479 9.65633 48.7874C9.28603 49.4435 9.03076 49.9832 8.89098 50.4234C8.75099 50.8719 8.80045 51.1459 9.03076 51.2704C9.29419 51.4116 9.77159 51.1873 10.4548 50.5894C11.1464 49.9915 11.9612 49.2027 12.9079 48.2145C13.8545 47.2428 14.8917 46.1301 16.0194 44.8843C17.1471 43.6388 18.2749 42.443 19.4191 41.2969C24.5145 43.2818 29.3299 44.7516 33.8573 45.7066C38.3766 46.6616 42.5251 47.2178 46.2785 47.3758C50.0404 47.5335 53.3496 47.3176 56.2224 46.728C59.0871 46.1465 61.4165 45.2996 63.1945 44.1868C64.9725 43.0741 66.1579 41.7371 66.7671 40.1842C67.368 38.6312 67.2856 36.9456 66.52 35.1436C65.7463 33.3334 64.2317 31.4566 61.9681 29.5051C59.6961 27.5619 56.6011 25.627 52.6664 23.7087C56.9304 22.7038 60.6262 21.4499 63.7625 19.9468C66.8906 18.4439 69.4918 16.866 71.5662 15.1968C73.6405 13.5276 75.2044 11.8751 76.2581 10.2308C77.3119 8.58659 77.888 7.10855 77.9867 5.78796C78.0772 4.46762 77.7069 3.40482 76.8837 2.58257C76.0523 1.7688 74.793 1.37027 73.1137 1.39498C71.7883 1.39498 70.2655 1.68571 68.5615 2.25867C66.8493 2.8401 65.0549 3.59572 63.1534 4.54249C61.2601 5.49749 59.3258 6.57702 57.342 7.80603C55.3581 9.02679 53.4319 10.3057 51.5468 11.6343C49.6617 12.9713 47.8673 14.3082 46.1717 15.6535C44.4842 16.9987 42.9778 18.2445 41.6771 19.3904L39.7264 18.8174C42.7309 15.9858 45.3566 13.6024 47.5791 11.6592L53.2014 6.74297C54.716 5.40616 55.8932 4.30991 56.7162 3.44624C57.5478 2.58257 58.0662 1.81871 58.2886 1.14593C58.3791 0.855221 58.3873 0.60617 58.3049 0.390309C58.2226 0.174466 57.9923 0.0664061 57.6052 0.0499408C57.2267 0.0414666 56.6917 0.174466 55.9919 0.464938C55.2921 0.74742 54.3786 1.25399 53.2672 1.96818C50.946 3.46295 48.6576 4.65876 46.4104 5.55564C44.1549 6.4525 42.0722 7.12502 40.146 7.57345C38.2284 8.01364 36.5654 8.25446 35.1498 8.28765C33.742 8.32907 32.713 8.21302 32.0793 7.94726V8.16312Z" fill="#1D1E1F"/>
<path fill-rule="evenodd" clip-rule="evenodd" d="M37.3557 0L32.0216 44.6435L37.9484 4.98242L51.7773 32.6856L37.3557 0Z" fill="#8B0000"/>
<path fill-rule="evenodd" clip-rule="evenodd" d="M20.654 46.2214C22.7117 48.0401 26.1031 49.2277 29.9473 49.2277C35.7753 49.2277 40.5741 46.4954 41.2326 42.9744C37.0431 45.117 31.3221 46.4373 25.0082 46.4373C23.5184 46.4373 22.0696 46.3627 20.654 46.2214Z" fill="#8B0000"/>
<path fill-rule="evenodd" clip-rule="evenodd" d="M39.9404 37.0949C42.1464 38.6478 45.5872 39.4367 49.349 38.9965C55.1439 38.3157 59.655 34.9608 59.8772 31.2903C55.9013 34.0058 50.3533 36.0404 44.1631 36.796C42.7225 36.9702 41.315 37.07 39.9404 37.0949Z" fill="#8B0000"/>
</g>
<defs>
<clipPath id="clip0_67_30">
<rect width="78" height="69" fill="white"/>
</clipPath>
</defs>
</svg>
