<svg width="41" height="41" viewBox="0 0 41 41" fill="none" xmlns="http://www.w3.org/2000/svg">
<path d="M34.9942 6.61371C31.2413 2.85875 26.2374 0.795898 20.9089 0.795898C9.93672 0.795898 0.998548 9.69372 0.988999 20.6164C0.988999 24.1147 1.90573 27.5179 3.64371 30.5314L0.82666 40.8076L11.3882 38.0508C14.3008 39.6288 17.5762 40.4654 20.9089 40.4654H20.9184C31.8906 40.4654 40.8288 31.5675 40.8383 20.6354C40.8288 15.3404 38.7566 10.3592 34.9942 6.61371ZM20.9089 37.1097C17.9295 37.1097 15.017 36.3111 12.4768 34.8092L11.8752 34.4479L5.61087 36.083L7.28201 29.999L6.89048 29.3716C5.2289 26.7479 4.35991 23.7154 4.35991 20.6069C4.35991 11.5379 11.7893 4.14209 20.9184 4.14209C25.3398 4.14209 29.4937 5.86271 32.6259 8.97125C35.7486 12.0893 37.4674 16.2245 37.4674 20.6259C37.4579 29.7233 30.0285 37.1097 20.9089 37.1097ZM29.9903 24.7706C29.4937 24.5234 27.0491 23.3256 26.5907 23.1545C26.1324 22.9929 25.7982 22.9074 25.4735 23.4017C25.1392 23.896 24.1843 25.0178 23.8978 25.341C23.6114 25.6737 23.3153 25.7117 22.8188 25.4645C22.3222 25.2174 20.7179 24.6945 18.8176 23.0024C17.3374 21.6906 16.3443 20.065 16.0483 19.5707C15.7618 19.0764 16.0196 18.8102 16.2679 18.563C16.4876 18.3444 16.7645 17.9831 17.0128 17.698C17.2611 17.4128 17.347 17.2036 17.5093 16.8709C17.6717 16.5382 17.5953 16.253 17.4711 16.0059C17.347 15.7587 16.3539 13.3156 15.9337 12.3269C15.5326 11.3573 15.122 11.4904 14.8164 11.4809C14.5299 11.4619 14.1957 11.4619 13.8615 11.4619C13.5273 11.4619 12.9925 11.5855 12.5341 12.0798C12.0758 12.5741 10.7962 13.7719 10.7962 16.215C10.7962 18.6581 12.5819 21.0061 12.8302 21.3388C13.0784 21.6716 16.3348 26.6718 21.3291 28.8202C22.5132 29.3336 23.4395 29.6378 24.1652 29.8659C25.3589 30.2462 26.438 30.1891 27.2974 30.0656C28.2523 29.923 30.2386 28.8678 30.6588 27.708C31.0694 26.5483 31.0694 25.5596 30.9452 25.3505C30.8211 25.1413 30.4869 25.0178 29.9903 24.7706Z" fill="#8F2525"/>
</svg>
